<?xml version="1.0" encoding="utf-8"?>
<!-- Generator: Adobe Illustrator 15.0.0, SVG Export Plug-In . SVG Version: 6.00 Build 0)  -->
<!DOCTYPE svg PUBLIC "-//W3C//DTD SVG 1.1//EN" "http://www.w3.org/Graphics/SVG/1.1/DTD/svg11.dtd">
<svg version="1.1" id="Layer_1" xmlns="http://www.w3.org/2000/svg" xmlns:xlink="http://www.w3.org/1999/xlink" x="0px" y="0px"
	 width="198.43px" height="198.43px" viewBox="0 0 198.43 198.43" enable-background="new 0 0 198.43 198.43" xml:space="preserve">
<g>
	<path fill="#383839" d="M158,114.084c0,7.795-6.378,14.173-14.173,14.173H54.173c-7.795,0-14.173-6.378-14.173-14.173V80.319
		c0-7.795,6.378-14.173,14.173-14.173h89.654c7.795,0,14.173,6.378,14.173,14.173V114.084z"/>
</g>
<polygon fill="#FFFFFF" points="130.186,129.134 117.988,129.134 124.087,122.353 130.186,115.572 136.284,122.353 142.381,129.134 
	"/>
<polygon fill="#FFFFFF" points="107.58,130.1 95.383,130.1 101.482,123.317 107.58,116.537 113.679,123.317 119.776,130.1 "/>
<polygon fill="#FFFFFF" points="86.625,129.884 74.429,129.884 80.528,123.104 86.625,116.322 92.724,123.104 98.823,129.884 "/>
<polygon fill="#FFFFFF" points="64.479,128.944 52.282,128.944 58.38,122.164 64.479,115.384 70.577,122.164 76.674,128.944 "/>
<polygon fill="#FFFFFF" points="64.283,65.448 76.48,65.448 70.381,72.23 64.283,79.009 58.185,72.23 52.087,65.448 "/>
<polygon fill="#FFFFFF" points="86.889,64.483 99.085,64.483 92.987,71.265 86.889,78.046 80.791,71.265 74.691,64.483 "/>
<polygon fill="#FFFFFF" points="107.843,64.699 120.039,64.699 113.94,71.48 107.843,78.261 101.745,71.48 95.646,64.699 "/>
<polygon fill="#FFFFFF" points="129.99,65.638 142.187,65.638 136.088,72.418 129.99,79.198 123.892,72.418 117.795,65.638 "/>
</svg>
