<?xml version="1.0" encoding="utf-8"?>
<!-- Generator: Adobe Illustrator 15.0.0, SVG Export Plug-In . SVG Version: 6.00 Build 0)  -->
<!DOCTYPE svg PUBLIC "-//W3C//DTD SVG 1.1//EN" "http://www.w3.org/Graphics/SVG/1.1/DTD/svg11.dtd">
<svg version="1.1" id="Layer_1" xmlns="http://www.w3.org/2000/svg" xmlns:xlink="http://www.w3.org/1999/xlink" x="0px" y="0px"
	 width="198.43px" height="198.43px" viewBox="0 0 198.43 198.43" enable-background="new 0 0 198.43 198.43" xml:space="preserve">
<g>
	<g>
		<g>
			<path fill-rule="evenodd" clip-rule="evenodd" fill="#FFFFFF" d="M161.226,93.727c-5.676,4.137-16.509,1.37-15.514-7.318
				c-2.785,7.274-18.704,7.979-18.148-3.806c-0.931,8.983-18.297,9.549-17.856-1.171c-1.247,7.975-15.71,10.837-19.026,0.878
				c-0.415,8.231-16.226,9.631-17.856,1.463c-0.503,8.604-15.305,10.675-18.441,2.927c0.141,7.854-9.878,11.397-15.807,7.025
				c2.634-17.947,32.159-17.055,52.689-18.734c3.697-0.303,9.623-0.195,14.05,0C128.805,76.025,157.634,75.567,161.226,93.727z"/>
			<path fill-rule="evenodd" clip-rule="evenodd" d="M91.266,74.407c14.35-0.684,28.003-0.076,41.273,1.463
				c8.957,1.039,25.03,2.748,28.979,13.172c4.857,12.825-5.719,23.071-19.319,22.246c-13.652-0.827-27.253-3.805-45.079-3.805
				c-8.237,0-15.777,0.7-22.832,1.463c-8.085,0.875-18.875,4.11-26.052,1.464c-8.77-3.233-15.386-17.46-6.44-26.637
				C49.336,76.042,72.474,75.302,91.266,74.407z M105.317,74.993c-4.428-0.195-10.354-0.303-14.05,0
				c-20.53,1.679-50.055,0.787-52.689,18.734c5.928,4.372,15.948,0.828,15.807-7.025c3.136,7.748,17.938,5.677,18.441-2.927
				c1.63,8.168,17.441,6.768,17.856-1.463c3.316,9.958,17.779,7.096,19.026-0.878c-0.44,10.72,16.926,10.154,17.856,1.171
				c-0.556,11.785,15.363,11.08,18.148,3.806c-0.995,8.688,9.838,11.455,15.514,7.318C157.634,75.567,128.805,76.025,105.317,74.993
				z"/>
			<path fill-rule="evenodd" clip-rule="evenodd" fill="#FFFFFF" d="M169.715,118.901c-46.444,0-92.89,0-139.334,0
				c0-17.173,0-34.346,0-51.519c46.444,0,92.889,0,139.334,0C169.715,84.555,169.715,101.728,169.715,118.901z M87.461,68.553
				c-14.431,0.671-32.457,0.676-43.322,6.147c-9.621,4.844-17.796,19.795-11.124,30.736c3.021,4.952,10.857,11.54,19.905,12.294
				c7.553,0.629,15.144-1.975,22.832-2.928c14.75-1.828,34.438-1.809,48.591,0c7.673,0.98,15.156,3.705,23.125,2.928
				c14.529-1.418,26.67-17.094,18.734-32.785c-5.165-10.211-17.802-12.92-31.321-14.636C120.333,68.463,103.96,67.785,87.461,68.553
				z"/>
			<path fill-rule="evenodd" clip-rule="evenodd" fill="#93DAE5" d="M134.881,70.309c13.52,1.716,26.156,4.425,31.321,14.636
				c7.936,15.691-4.205,31.367-18.734,32.785c-7.969,0.777-15.452-1.947-23.125-2.928c-14.153-1.809-33.841-1.828-48.591,0
				c-7.688,0.953-15.279,3.557-22.832,2.928c-9.048-0.754-16.884-7.342-19.905-12.294c-6.673-10.94,1.503-25.892,11.124-30.736
				c10.865-5.471,28.892-5.476,43.322-6.147C103.96,67.785,120.333,68.463,134.881,70.309z M41.797,83.774
				c-8.946,9.177-2.33,23.404,6.44,26.637c7.177,2.646,17.967-0.589,26.052-1.464c7.055-0.763,14.595-1.463,22.832-1.463
				c17.826,0,31.426,2.978,45.079,3.805c13.601,0.825,24.177-9.421,19.319-22.246c-3.949-10.424-20.022-12.133-28.979-13.172
				c-13.27-1.54-26.923-2.147-41.273-1.463C72.474,75.302,49.336,76.042,41.797,83.774z"/>
		</g>
	</g>
</g>
</svg>
