<?xml version="1.0" encoding="utf-8"?>
<!-- Generator: Adobe Illustrator 15.0.0, SVG Export Plug-In . SVG Version: 6.00 Build 0)  -->
<!DOCTYPE svg PUBLIC "-//W3C//DTD SVG 1.1//EN" "http://www.w3.org/Graphics/SVG/1.1/DTD/svg11.dtd">
<svg version="1.1" id="Layer_1" xmlns="http://www.w3.org/2000/svg" xmlns:xlink="http://www.w3.org/1999/xlink" x="0px" y="0px"
	 width="198.43px" height="198.43px" viewBox="0 0 198.43 198.43" enable-background="new 0 0 198.43 198.43" xml:space="preserve">
<g>
	<g>
		<path fill="#645029" d="M40.754,80.701c-4.698,0.143-5.898,2.024-7.173,6.197c-1.124,3.681-1.257,8.017,1.672,10.947
			c1.913,1.912,6.721,2.239,9.278,1.786c4.234-0.75,7.801-3.74,11.213-6.167c4.05-2.88,8.1-5.714,12.931-7.091
			c5.764-1.643,13.145-1.475,19.019-0.451c3.847,0.671,7.496,2.532,11.436,2.665c5.244,0.177,10.761-1.254,15.946-1.848
			c5.269-0.604,10.562-0.456,15.396,1.902c3.795,1.851,7.076,4.733,10.453,7.224c5.817,4.29,13.754,7.673,21.148,5.947
			c7.051-1.646,7.81-10.609,2.283-14.69c-7.54-5.568-13.926,2.129-13.796,9.715c0.077,4.508,7.077,4.516,7,0
			c-0.013-0.718,0.033-5.477,2.223-4.439c3.311,1.569,0.528,2.641-0.742,2.674c-2.705,0.07-5.232-0.336-7.785-1.219
			c-4.796-1.659-8.869-5.677-12.928-8.586c-11.708-8.393-24.036-4.821-37.303-3.817c-5.229,0.396-10.406-2.303-15.643-2.853
			c-6.567-0.689-13.664-0.372-20.028,1.442c-5.82,1.659-10.821,5.755-15.681,9.175c-2.045,1.439-4.43,3.473-7.037,3.582
			c-4.722,0.198-2.255-4.204-1.394-7.026c-0.815,0.814-1.63,1.629-2.444,2.444c0.651-0.171,1.303-0.342,1.955-0.514
			C45.257,87.564,45.271,80.563,40.754,80.701L40.754,80.701z"/>
	</g>
</g>
<g>
	<g>
		<path fill="#4A494A" d="M73,103c15.833,0,31.667,0,47.5,0c4.514,0,4.514-7,0-7c-15.833,0-31.667,0-47.5,0
			C68.486,96,68.486,103,73,103L73,103z"/>
	</g>
</g>
</svg>
