<?xml version="1.0" encoding="utf-8"?>
<!-- Generator: Adobe Illustrator 15.0.0, SVG Export Plug-In . SVG Version: 6.00 Build 0)  -->
<!DOCTYPE svg PUBLIC "-//W3C//DTD SVG 1.1//EN" "http://www.w3.org/Graphics/SVG/1.1/DTD/svg11.dtd">
<svg version="1.1" id="Layer_1" xmlns="http://www.w3.org/2000/svg" xmlns:xlink="http://www.w3.org/1999/xlink" x="0px" y="0px"
	 width="198.43px" height="198.43px" viewBox="0 0 198.43 198.43" enable-background="new 0 0 198.43 198.43" xml:space="preserve">
<g>
	<path fill="#383839" d="M159,117.417c0,7.795-6.378,14.173-14.173,14.173H55.173c-7.795,0-14.173-6.378-14.173-14.173V83.652
		c0-7.795,6.378-14.173,14.173-14.173h89.654c7.795,0,14.173,6.378,14.173,14.173V117.417z"/>
</g>
<g id="XMLID_2_">
	<path fill="#FFFFFF" d="M105.023,68.666c11.299,0,22.596,0,33.893,0c-0.055,5.251-2.139,9.121-4.987,12.016
		c-2.761,2.805-6.765,4.945-11.902,4.987c-5.142,0.042-9.231-2.091-12.015-4.874c-2.887-2.887-4.938-6.649-5.102-11.789
		C104.9,68.845,104.892,68.685,105.023,68.666z"/>
</g>
<g id="XMLID_1_">
	<path fill="#FFFFFF" d="M59.356,68.666c11.299,0,22.596,0,33.893,0c-0.055,5.251-2.139,9.121-4.987,12.016
		c-2.761,2.805-6.765,4.945-11.902,4.987c-5.142,0.042-9.231-2.091-12.015-4.874c-2.887-2.887-4.938-6.649-5.102-11.789
		C59.233,68.845,59.225,68.685,59.356,68.666z"/>
</g>
</svg>
