<?xml version="1.0" encoding="utf-8"?>
<!-- Generator: Adobe Illustrator 15.0.0, SVG Export Plug-In . SVG Version: 6.00 Build 0)  -->
<!DOCTYPE svg PUBLIC "-//W3C//DTD SVG 1.1//EN" "http://www.w3.org/Graphics/SVG/1.1/DTD/svg11.dtd">
<svg version="1.1" id="Layer_1" xmlns="http://www.w3.org/2000/svg" xmlns:xlink="http://www.w3.org/1999/xlink" x="0px" y="0px"
	 width="198.43px" height="198.43px" viewBox="0 0 198.43 198.43" enable-background="new 0 0 198.43 198.43" xml:space="preserve">
<g>
	<g>
		<path fill="#4A494A" d="M48.5,120.5c-0.148-11.522,0.887-24.245,8.881-33.259C67,76.396,83.138,77.304,96.287,77.075
			c13.822-0.241,29.131,0.569,40.093,10.011c9.527,8.207,13.47,21.21,13.62,33.414c0.056,4.511,7.056,4.516,7,0
			c-0.171-13.883-4.702-27.51-14.669-37.436c-11.54-11.492-28.887-13.034-44.307-13.007c-15.73,0.027-32.39-0.102-44.647,11.266
			C42.924,91.018,41.328,107.111,41.5,120.5C41.558,125.011,48.558,125.017,48.5,120.5L48.5,120.5z"/>
	</g>
</g>
<g>
	<g>
		<path fill="#020202" d="M29.592,59.076c-9.068-0.985-11.318,13.98-6.066,19.233c2.425,2.424,8.265,2.331,11.403,1.775
			c4.683-0.829,9.105-4.929,12.842-7.586c5.116-3.637,10.232-6.974,16.44-8.337c6.495-1.427,14.255-1.33,20.808-0.266
			c4.906,0.797,9.718,3.528,14.764,3.169c6.287-0.447,12.478-1.539,18.741-2.2c5.761-0.608,11.677-0.441,17.025,1.982
			c4.218,1.911,7.894,4.965,11.562,7.736c7.469,5.643,15.075,8.999,24.59,8.489c8.854-0.474,11.19-11.36,4.283-16.463
			c-8.486-6.269-15.629,2.376-15.392,10.967c0.124,4.504,7.125,4.517,7,0c-0.046-1.677,0.085-3.114,0.809-4.662
			c1.946-4.162,6.123,2.157,4.282,2.925c-2.261,0.942-6.145,0.3-8.444-0.105c-6.361-1.122-11.631-5.722-16.63-9.489
			c-5.369-4.046-10.92-7.153-17.625-8.238c-8.465-1.371-17.072,0.684-25.463,1.668c-3.51,0.412-6.239,0.483-9.645-0.419
			c-3.511-0.931-6.953-2.14-10.59-2.505C76,55.918,67.269,55.936,59.199,58.193c-7.526,2.104-13.839,7.585-20.162,11.91
			c-2.473,1.691-4.855,3.418-7.949,3.29c-2.269-0.094-3.254-0.151-3.299-2.583c-0.039-2.083,1.154-4.578,1.752-6.545
			c-0.815,0.814-1.63,1.629-2.444,2.444c0.779-0.417,1.61-0.627,2.494-0.633C34.077,66.562,34.03,59.558,29.592,59.076
			L29.592,59.076z"/>
	</g>
</g>
</svg>
