<?xml version="1.0" encoding="utf-8"?>
<!-- Generator: Adobe Illustrator 15.0.0, SVG Export Plug-In . SVG Version: 6.00 Build 0)  -->
<!DOCTYPE svg PUBLIC "-//W3C//DTD SVG 1.1//EN" "http://www.w3.org/Graphics/SVG/1.1/DTD/svg11.dtd">
<svg version="1.1" id="Layer_1" xmlns="http://www.w3.org/2000/svg" xmlns:xlink="http://www.w3.org/1999/xlink" x="0px" y="0px"
	 width="198.43px" height="198.43px" viewBox="0 0 198.43 198.43" enable-background="new 0 0 198.43 198.43" xml:space="preserve">
<g>
	<g>
		<path d="M9.079,78.405c3.088,4.772,7.837,8.602,12.073,12.305c5.294,4.628,10.812,8.326,17.043,11.628
			c15.929,8.443,33.653,12.936,51.572,14.236c35.304,2.562,71.244-9.033,99.117-30.593c3.566-2.759-1.427-7.675-4.949-4.95
			c-25.817,19.97-58.615,29.977-91.143,28.712c-16.692-0.649-33.239-4.808-48.283-12.044c-5.973-2.873-11.624-6.198-16.691-10.465
			c-4.31-3.628-9.603-7.583-12.696-12.362C12.681,71.098,6.619,74.603,9.079,78.405L9.079,78.405z"/>
	</g>
</g>
</svg>
