<?xml version="1.0" encoding="utf-8"?>
<!-- Generator: Adobe Illustrator 15.0.0, SVG Export Plug-In . SVG Version: 6.00 Build 0)  -->
<!DOCTYPE svg PUBLIC "-//W3C//DTD SVG 1.1//EN" "http://www.w3.org/Graphics/SVG/1.1/DTD/svg11.dtd">
<svg version="1.1" id="Layer_1" xmlns="http://www.w3.org/2000/svg" xmlns:xlink="http://www.w3.org/1999/xlink" x="0px" y="0px"
	 width="198.43px" height="198.43px" viewBox="0 0 198.43 198.43" enable-background="new 0 0 198.43 198.43" xml:space="preserve">
<g>
	<path fill="#383839" d="M157.166,111.183c0,7.795-6.378,14.173-14.173,14.173H51.507c-7.795,0-14.173-6.378-14.173-14.173V85.84
		c0-7.795,6.378-14.173,14.173-14.173h91.486c7.795,0,14.173,6.378,14.173,14.173V111.183z"/>
</g>
<polygon fill="#FFFFFF" points="61.469,72.681 72.011,72.681 66.74,78.542 61.469,84.403 56.197,78.542 50.926,72.681 "/>
<polygon fill="#FFFFFF" points="86.007,72.848 96.551,72.848 91.279,78.708 86.007,84.57 80.736,78.708 75.465,72.848 "/>
<polygon fill="#FFFFFF" points="110.121,73.033 120.664,73.033 115.392,78.894 110.121,84.755 104.85,78.894 99.578,73.033 "/>
<polygon fill="#FFFFFF" points="134.265,72.844 144.809,72.844 139.536,78.705 134.265,84.566 128.994,78.705 123.723,72.844 "/>
<polygon fill="#FFFFFF" points="134.29,124.114 123.747,124.114 129.019,118.252 134.29,112.392 139.562,118.252 144.832,124.114 
	"/>
<polygon fill="#FFFFFF" points="109.75,123.948 99.207,123.948 104.479,118.086 109.75,112.225 115.021,118.086 120.293,123.948 "/>
<polygon fill="#FFFFFF" points="85.637,123.762 75.094,123.762 80.366,117.9 85.637,112.039 90.908,117.9 96.18,123.762 "/>
<polygon fill="#FFFFFF" points="61.493,123.95 50.95,123.95 56.222,118.089 61.493,112.229 66.764,118.089 72.035,123.95 "/>
</svg>
