<?xml version="1.0" encoding="utf-8"?>
<!-- Generator: Adobe Illustrator 15.0.0, SVG Export Plug-In . SVG Version: 6.00 Build 0)  -->
<!DOCTYPE svg PUBLIC "-//W3C//DTD SVG 1.1//EN" "http://www.w3.org/Graphics/SVG/1.1/DTD/svg11.dtd">
<svg version="1.1" id="Layer_1" xmlns="http://www.w3.org/2000/svg" xmlns:xlink="http://www.w3.org/1999/xlink" x="0px" y="0px"
	 width="198.43px" height="198.43px" viewBox="0 0 198.43 198.43" enable-background="new 0 0 198.43 198.43" xml:space="preserve">
<g id="XMLID_2_">
	<path fill="#FFFFFF" d="M105.023,88.666c11.299,0,22.596,0,33.893,0c-0.055,5.251-2.139,9.121-4.987,12.016
		c-2.761,2.805-6.765,4.945-11.902,4.986c-5.142,0.042-9.231-2.09-12.015-4.873c-2.887-2.888-4.938-6.65-5.102-11.789
		C104.9,88.845,104.892,88.685,105.023,88.666z"/>
</g>
<g id="XMLID_1_">
	<path fill="#FFFFFF" d="M59.356,88.666c11.299,0,22.596,0,33.893,0c-0.055,5.251-2.139,9.121-4.987,12.016
		c-2.761,2.805-6.765,4.945-11.902,4.986c-5.142,0.042-9.231-2.09-12.015-4.873c-2.887-2.888-4.938-6.65-5.102-11.789
		C59.233,88.845,59.225,88.685,59.356,88.666z"/>
</g>
<g>
	<g>
		<path fill="#383839" d="M43.667,88.833c37.556,0,75.111,0,112.667,0c4.514,0,4.514-7,0-7c-37.556,0-75.111,0-112.667,0
			C39.152,81.833,39.152,88.833,43.667,88.833L43.667,88.833z"/>
	</g>
</g>
<g>
	<g>
		<path fill="#D3D3D3" d="M62,92.5c9.556,0,19.111,0,28.667,0c1.935,0,1.935-3,0-3c-9.556,0-19.111,0-28.667,0
			C60.065,89.5,60.065,92.5,62,92.5L62,92.5z"/>
	</g>
</g>
<g>
	<g>
		<path fill="#D3D3D3" d="M108,92.5c9.556,0,19.11,0,28.666,0c1.935,0,1.935-3,0-3c-9.556,0-19.11,0-28.666,0
			C106.065,89.5,106.065,92.5,108,92.5L108,92.5z"/>
	</g>
</g>
</svg>
