<?xml version="1.0" encoding="utf-8"?>
<!-- Generator: Adobe Illustrator 15.0.0, SVG Export Plug-In . SVG Version: 6.00 Build 0)  -->
<!DOCTYPE svg PUBLIC "-//W3C//DTD SVG 1.1//EN" "http://www.w3.org/Graphics/SVG/1.1/DTD/svg11.dtd">
<svg version="1.1" id="Layer_1" xmlns="http://www.w3.org/2000/svg" xmlns:xlink="http://www.w3.org/1999/xlink" x="0px" y="0px"
	 width="198.43px" height="198.43px" viewBox="0 0 198.43 198.43" enable-background="new 0 0 198.43 198.43" xml:space="preserve">
<g>
	<g>
		<path fill="#4A494A" d="M48.5,120.5c-0.148-11.522,0.887-24.245,8.881-33.259C67,76.396,83.138,77.304,96.287,77.075
			c13.822-0.241,29.131,0.569,40.093,10.011c9.527,8.207,13.47,21.21,13.62,33.414c0.056,4.511,7.056,4.516,7,0
			c-0.171-13.883-4.702-27.51-14.669-37.436c-11.54-11.492-28.887-13.034-44.307-13.007c-15.73,0.027-32.39-0.102-44.647,11.266
			C42.924,91.018,41.328,107.111,41.5,120.5C41.558,125.011,48.558,125.017,48.5,120.5L48.5,120.5z"/>
	</g>
</g>
</svg>
