<?xml version="1.0" encoding="utf-8"?>
<!-- Generator: Adobe Illustrator 15.0.0, SVG Export Plug-In . SVG Version: 6.00 Build 0)  -->
<!DOCTYPE svg PUBLIC "-//W3C//DTD SVG 1.1//EN" "http://www.w3.org/Graphics/SVG/1.1/DTD/svg11.dtd">
<svg version="1.1" id="Layer_1" xmlns="http://www.w3.org/2000/svg" xmlns:xlink="http://www.w3.org/1999/xlink" x="0px" y="0px"
	 width="198.43px" height="198.43px" viewBox="0 0 198.43 198.43" enable-background="new 0 0 198.43 198.43" xml:space="preserve">
<g>
	<g>
		<path fill="#3F403F" d="M38.875,131.931c2.241-10.31,13.062-17.476,21.395-22.732c9.674-6.102,20.158-10.368,31.316-12.878
			c12.978-2.92,25.173-2.178,36.521,5.098c5.684,3.645,10.607,8.448,15.338,13.224c2.228,2.249,4.389,4.564,6.559,6.869
			c2.439,2.592,5.633,4.863,6.621,8.42c1.207,4.343,7.961,2.496,6.75-1.861c-1.713-6.164-7.386-10.429-11.639-14.915
			c-5.443-5.742-11.113-11.184-17.45-15.937c-12.495-9.374-26.431-10.819-41.473-8.259c-12.852,2.187-25.024,7.395-36.076,14.196
			c-9.917,6.102-21.983,14.823-24.612,26.915C31.168,134.47,37.916,136.341,38.875,131.931L38.875,131.931z"/>
	</g>
</g>
</svg>
