<?xml version="1.0" encoding="utf-8"?>
<!-- Generator: Adobe Illustrator 15.0.0, SVG Export Plug-In . SVG Version: 6.00 Build 0)  -->
<!DOCTYPE svg PUBLIC "-//W3C//DTD SVG 1.1//EN" "http://www.w3.org/Graphics/SVG/1.1/DTD/svg11.dtd">
<svg version="1.1" id="Layer_1" xmlns="http://www.w3.org/2000/svg" xmlns:xlink="http://www.w3.org/1999/xlink" x="0px" y="0px"
	 width="283.46px" height="283.46px" viewBox="0 0 283.46 283.46" enable-background="new 0 0 283.46 283.46" xml:space="preserve">
<path fill="#39B54A" d="M35.269,257.154c-0.876-11.473,10.169-23.063,13.223-34.146c5.142-18.667,6.493-38.004,11.549-56.764
	c9.499-35.237,9.542-69.187,29.1-101.189c14.256-23.327,40.405-59.722,72.149-45.319c23.325,10.584,19.973,39.415,27.596,59.198
	c18.652,48.406,39.721,105.872,41.379,158.383c0.987,31.245-27.486,23.967-52.115,26.64c-28.919,3.139-58.136,5.688-87.146,8.271
	C84.238,272.831,75.842,274.18,69,273c-8.091-1.396-40.052-13.053-37.731-23.846"/>
</svg>
