<?xml version="1.0" encoding="utf-8"?>
<!-- Generator: Adobe Illustrator 15.0.0, SVG Export Plug-In . SVG Version: 6.00 Build 0)  -->
<!DOCTYPE svg PUBLIC "-//W3C//DTD SVG 1.1//EN" "http://www.w3.org/Graphics/SVG/1.1/DTD/svg11.dtd">
<svg version="1.1" id="Layer_1" xmlns="http://www.w3.org/2000/svg" xmlns:xlink="http://www.w3.org/1999/xlink" x="0px" y="0px"
	 width="283.46px" height="283.46px" viewBox="0 0 283.46 283.46" enable-background="new 0 0 283.46 283.46" xml:space="preserve">
<path fill="#8DC63F" stroke="#8DC63F" stroke-miterlimit="10" d="M32,265c-0.216-19.784,6.003-38.077,7.781-57.729
	C41.853,184.375,42,161.69,42,138.713c0-16.873-5.458-42.647,3.203-57.432c6.055-10.336,5.186-5.35,12.749-2.064
	c9.556,4.15,12.776,3.576,22.458-0.194c34.319-13.365,69.535-43.553,108.331-37.9c22.992,3.35,32.432,16.403,37.482,37.979
	c2.58,11.021,3.841,22.535,5.53,33.752c2.934,19.482,1.568,41.42,7.021,60.148c7.723,26.525,19.798,64.253,13.249,92.847
	c-3.161,13.799-20.396,12.495-32.927,13.926c-28.012,3.197-55.078,7.226-83.299,7.226c-26.474,0-60.331,5.827-85.796-1.729
	C38.591,281.885,31.742,275.236,33,263"/>
</svg>
