<?xml version="1.0" encoding="utf-8"?>
<!-- Generator: Adobe Illustrator 15.0.0, SVG Export Plug-In . SVG Version: 6.00 Build 0)  -->
<!DOCTYPE svg PUBLIC "-//W3C//DTD SVG 1.1//EN" "http://www.w3.org/Graphics/SVG/1.1/DTD/svg11.dtd">
<svg version="1.1" id="Layer_1" xmlns="http://www.w3.org/2000/svg" xmlns:xlink="http://www.w3.org/1999/xlink" x="0px" y="0px"
	 width="141.73px" height="141.73px" viewBox="0 0 141.73 141.73" enable-background="new 0 0 141.73 141.73" xml:space="preserve">
<g>
	<g>
		<path fill="#727373" d="M21.525,18.142c31.477,32.807,62.954,65.613,94.431,98.42c0.435,0.453,0.482,2.661-0.025,3.623
			c-1.345,2.55-5.005,4.142-7.725,5.188c-10.479,4.035-22.225,5.066-33.322,5.949c-17.32,1.377-34.854,1.575-52.217,0.845
			c-4.515-0.19-4.497,6.811,0,7c22.074,0.929,44.586,0.641,66.489-2.355c10.006-1.369,24.186-2.902,31.337-11.047
			c5.048-5.749,2.461-12.018-2.103-16.773c-30.639-31.934-61.277-63.866-91.916-95.8C23.345,9.929,18.401,14.885,21.525,18.142
			L21.525,18.142z"/>
	</g>
</g>
<g>
	<g>
		<path fill="#727373" d="M65,108.75c-2.835-0.168-5.757,0.163-8.581,0.34c-10.459,0.655-22.378,0.288-32.298,3.868
			c-10.829,3.908-11.869,15.418-5.394,23.809c2.716,3.52,8.802,0.041,6.044-3.533c-1.484-1.923-2.565-4.134-3.141-6.489
			c-1.483-6.076,5.878-7.788,10.336-8.574c8.722-1.539,17.98-1.716,26.83-2.223c2.045-0.117,4.152-0.319,6.204-0.197
			C69.511,116.018,69.485,109.017,65,108.75L65,108.75z"/>
	</g>
</g>
</svg>
